#!OML:ASF H:\Martial Arts Walks\Project 1\Capture day 1\Session 1\male.ASF
:FULLY-SPECIFIED
:DEGREES
1289
root -4.68337 13.5102 31.8615 -154.295 -87.2299 166.795
lowerback 21.7771 5.22484 -0.282617
upperback -1.03945 6.26082 -3.65198
thorax -12.9989 2.69677 -5.98323
lowerneck -1.36625 13.2157 3.49472
upperneck 5.62425 17.8848 -6.31908
head 3.03383 8.80633 -1.95564
rclavicle -9.26337e-014 1.21259e-014
rhumerus -29.6955 36.8835 -71.6851
rradius 102.848
rwrist 5.54612
rhand -19.5021 -33.5032
rfingers 7.12502
rthumb 6.8205 -63.3733
lclavicle -9.26337e-014 1.21259e-014
lhumerus -19.18 -23.0094 77.9587
lradius 112.233
lwrist 24.9056
lhand -21.7726 8.3473
lfingers 7.12502
lthumb 4.62831 38.2767
rfemur -58.1374 -17.6888 9.89451
rtibia 83.9603
rfoot -24.4316 -18.4762
rtoes -7.69457
lfemur -62.5415 8.69661 -2.44767
ltibia 68.6719
lfoot -17.9071 -4.95001
ltoes -14.7745
1290
root -4.63663 13.6153 31.7779 -132.968 -89.0182 145.841
lowerback 21.7573 4.9948 0.00870005
upperback -1.04678 6.05568 -3.53281
thorax -12.9958 2.59064 -5.94625
lowerneck -1.53176 12.9791 3.89994
upperneck 5.48733 17.5862 -6.85356
head 3.1043 8.65286 -2.19314
rclavicle -8.10048e-014 1.41137e-014
rhumerus -29.6257 36.6632 -71.4031
rradius 103.175
rwrist 5.09906
rhand -19.6487 -33.4006
rfingers 7.12502
rthumb 6.67894 -63.2753
lclavicle -8.10048e-014 1.41137e-014
lhumerus -18.5569 -23.1316 77.7978
lradius 112.003
lwrist 24.8231
lhand -21.8719 8.21177
lfingers 7.12502
lthumb 4.53246 38.1433
rfemur -57.4913 -16.7555 10.256
rtibia 82.9807
rfoot -24.7151 -18.717
rtoes -9.78768
lfemur -63.3592 9.11418 -3.17351
ltibia 67.2523
lfoot -16.0209 -7.41779
ltoes -10.3845
1291
root -4.59434 13.7146 31.6919 -187.707 -91.202 200.907
lowerback 21.6599 4.72171 0.266636
upperback -1.00484 5.79152 -3.36878
thorax -12.9059 2.46576 -5.80851
lowerneck -1.8617 12.8107 3.69183
upperneck 5.31975 17.3454 -6.67902
head 3.04982 8.53187 -2.10344
rclavicle 4.02539e-015 2.04748e-014
rhumerus -29.7131 36.4738 -71.2832
rradius 103.66
rwrist 4.68059
rhand -19.8818 -33.4417
rfingers 7.12502
rthumb 6.45397 -63.3233
lclavicle 4.02539e-015 2.04748e-014
lhumerus -17.8748 -23.1152 77.5376
lradius 111.837
lwrist 24.9249
lhand -21.8968 8.42567
lfingers 7.12502
lthumb 4.50841 38.3577
rfemur -56.7985 -15.7991 10.5867
rtibia 82.0435
rfoot -25.2807 -18.6277
rtoes -10.5828
lfemur -64.2507 9.76175 -4.06334
ltibia 65.9829
lfoot -13.8548 -9.93387
ltoes -6.31281
1292
root -4.55566 13.8084 31.6103 -174.806 -93.0956 188.327
lowerback 21.6791 4.51579 0.523123
upperback -1.0569 5.61021 -3.23346
thorax -12.9822 2.36962 -5.75084
lowerneck -1.59131 12.703 3.2324
upperneck 4.8586 17.1878 -6.55589
head 2.77337 8.46466 -2.03901
rclavicle -7.23079e-014 1.15295e-014
rhumerus -29.7581 36.306 -70.8476
rradius 104.04
rwrist 3.77775
rhand -19.9311 -33.1758
rfingers 7.12502
rthumb 6.40636 -63.0589
lclavicle -7.23079e-014 1.15295e-014
lhumerus -17.3229 -23.364 77.483
lradius 111.69
lwrist 25.0679
lhand -22.1005 8.48533
lfingers 7.12502
lthumb 4.31177 38.4214
rfemur -56.0999 -14.7747 10.7168
rtibia 81.1509
rfoot -25.5796 -19.1602
rtoes -11.5454
lfemur -65.2498 10.5208 -5.27723
ltibia 64.8894
lfoot -11.3297 -12.3016
ltoes -2.26483
1293
root -4.52255 13.8977 31.5265 -171.493 -95.0535 185.297
lowerback 21.6201 4.25227 0.67488
upperback -1.0878 5.32395 -3.10741
thorax -13.0085 2.23404 -5.60167
lowerneck -1.62669 12.5062 3.76327
upperneck 4.72529 16.9389 -7.13381
head 2.83811 8.33945 -2.31665
rclavicle 7.89175e-014 -7.92157e-014
rhumerus -29.9185 36.001 -70.8446
rradius 104.335
rwrist 3.14838
rhand -19.9452 -32.812
rfingers 7.12502
rthumb 6.39271 -62.6955
lclavicle 7.89175e-014 -7.92157e-014
lhumerus -16.7909 -23.4734 77.2599
lradius 111.627
lwrist 25.4271
lhand -22.6464 8.9774
lfingers 7.12502
lthumb 3.78461 38.9235
rfemur -55.3494 -13.6953 10.8508
rtibia 80.2994
rfoot -25.5862 -20.1056
rtoes -13.227
lfemur -66.3019 11.3455 -6.58968
ltibia 63.9902
lfoot -8.93226 -13.836
ltoes -1.05577
1294
root -4.49665 13.9811 31.441 -169.175 -96.9619 183.163
lowerback 21.5742 4.26344 1.1587
upperback -1.04714 5.46018 -3.16072
thorax -12.8703 2.26932 -5.96916
lowerneck -1.9521 12.1347 3.64316
upperneck 4.66697 16.4157 -6.73849
head 2.79032 8.0823 -2.18298
rclavicle 1.72694e-014 -5.56597e-015
rhumerus -30.5439 35.0209 -70.7955
rradius 104.829
rwrist 2.39866
rhand -20.1981 -32.5542
rfingers 7.12502
rthumb 6.14854 -62.445
lclavicle 1.72694e-014 -5.56597e-015
lhumerus -15.7108 -24.5456 76.9346
lradius 111.416
lwrist 25.6581
lhand -23.3787 9.15998
lfingers 7.12502
lthumb 3.07738 39.1175
rfemur -54.4932 -12.4869 11.0326
rtibia 79.4634
rfoot -26.0745 -20.4982
rtoes -13.6655
lfemur -67.3229 12.2821 -7.83795
ltibia 63.3486
lfoot -6.94624 -14.9234
ltoes -2.16003
